<svg width="128" height="128" xmlns="http://www.w3.org/2000/svg">
 <title/>

 <g>
  <title>background</title>
  <rect fill="none" id="canvas_background" height="402" width="582" y="-1" x="-1"/>
 </g>
 <g>
  <title>Layer 1</title>
  <path fill="#ffffff" id="svg_1" d="m128,122a28.62,28.62 0 0 0 -28.58,-28.5l-13.83,0a1.85,1.85 0 0 1 -1.87,-1.83l0,-10.5l5.52,-6.76a14.85,14.85 0 0 0 3.34,-9.36l0,-4.67a8,8 0 0 0 5.42,-7.57l0,-8a8,8 0 0 0 -5,-7.42l0,-3.29a13.49,13.49 0 0 0 8.31,-20.81a3,3 0 0 0 -4.56,-0.46a7.52,7.52 0 0 1 -1.75,1.25a13.52,13.52 0 0 0 -5.15,-11.51a3,3 0 0 0 -4.48,0.94a7.44,7.44 0 0 1 -3,3a29,29 0 0 0 -47.37,22.49l0,8.39a8,8 0 0 0 -5,7.42l0,8a8,8 0 0 0 5.42,7.57l0,4.67a14.86,14.86 0 0 0 3.34,9.36l5.52,6.76l0,10.5a1.85,1.85 0 0 1 -1.87,1.83l-13.83,0a28.63,28.63 0 0 0 -28.58,28.59l0,2.91a3,3 0 0 0 3,3l122,0a3,3 0 0 0 3,-3l0,-3zm-122,0a22.61,22.61 0 0 1 22.58,-22.49l13.83,0a7.86,7.86 0 0 0 7.87,-7.83l0,-11.57a3,3 0 0 0 -0.68,-1.9l-6.2,-7.59a8.84,8.84 0 0 1 -2,-5.57l0,-7.24a3,3 0 0 0 -3,-3l-0.4,0a2,2 0 0 1 -2,-2l0,-8a2,2 0 0 1 2,-2a3,3 0 0 0 3,-3l0,-10.81a23,23 0 0 1 38.71,-16.79a3,3 0 0 0 2.91,0.68a13.46,13.46 0 0 0 5.54,-3.23a7.51,7.51 0 0 1 0.1,6.9a3,3 0 0 0 2.51,4.34a13.58,13.58 0 0 0 6.77,-1.38a7.5,7.5 0 0 1 -2.06,6.69a7.3,7.3 0 0 1 -5.48,2.18a3.15,3.15 0 0 0 -2.15,0.86a3,3 0 0 0 -0.9,2.14l0,8.42a3,3 0 0 0 3,3a2,2 0 0 1 2,2l0,8a2,2 0 0 1 -2,2l-0.42,0a3,3 0 0 0 -3,3l0,7.24a8.83,8.83 0 0 1 -2,5.57l-6.13,7.59a3,3 0 0 0 -0.68,1.9l0,11.56a7.86,7.86 0 0 0 7.87,7.83l13.83,0a22.61,22.61 0 0 1 22.58,22.5l-116,0z"/>
 </g>
</svg>