<svg width="512" height="512" xmlns="http://www.w3.org/2000/svg" preserveAspectRatio="xMidYMid meet">

 <g>
  <title>background</title>
  <rect fill="none" id="canvas_background" height="402" width="582" y="-1" x="-1"/>
 </g>
 <g>
  <title>Layer 1</title>
  <g id="svg_1" transform="translate(0,512) scale(0.10000000149011612,-0.10000000149011612) " fill="#000000">
   <path fill="#ffffff" id="svg_2" d="m2285,4898c-311,-35 -683,-165 -955,-333c-220,-137 -472,-361 -622,-555c-256,-331 -417,-712 -480,-1135c-20,-136 -17,-512 5,-655c103,-665 471,-1245 1027,-1616c287,-191 623,-320 966,-371c164,-24 504,-24 668,0c411,61 815,237 1136,494c459,368 764,897 857,1485c25,159 25,537 0,696c-83,524 -329,995 -708,1356c-370,352 -861,581 -1361,635c-114,13 -419,12 -533,-1zm538,-1409c144,-61 361,-153 482,-203c121,-51 243,-103 270,-116c28,-13 165,-71 305,-130c451,-190 502,-213 488,-221c-7,-5 -119,-70 -248,-146l-235,-139l-3,-252c-2,-213 0,-252 12,-252c21,0 66,-58 66,-85c0,-28 -21,-35 -112,-35l-68,0l0,34c0,24 9,43 30,66l30,32l0,233l0,233l-179,-101l-179,-102l-4,-150l-3,-150l-42,-85c-50,-102 -48,-99 -143,-176c-139,-113 -236,-152 -485,-195c-202,-34 -285,-36 -454,-8c-111,18 -309,77 -374,110c-51,27 -198,143 -231,183c-70,86 -80,122 -86,305l-5,165l-453,257c-249,142 -453,261 -453,265c0,4 87,44 193,89c378,161 858,365 1198,509c190,80 359,153 375,160c17,8 34,15 38,15c5,1 126,-49 270,-110zm1164,-1720c22,-59 23,-63 6,-82c-30,-32 -69,-47 -128,-47c-62,0 -106,19 -125,54c-8,17 -7,30 6,61c9,22 20,49 24,60c7,18 16,20 100,19l93,-2l24,-63z"/>
   <path fill="#ffffff" id="svg_3" d="m826,2831c5,-5 351,-204 769,-441c418,-238 806,-459 863,-491c74,-42 103,-54 100,-42c-4,19 -1692,982 -1722,983c-13,0 -16,-3 -10,-9z"/>
  </g>
 </g>
</svg>