<svg width="512" height="512" xmlns="http://www.w3.org/2000/svg">

 <g>
  <title>background</title>
  <rect fill="none" id="canvas_background" height="402" width="582" y="-1" x="-1"/>
 </g>
 <g>
  <title>Layer 1</title>
  <g id="svg_1">
   <g id="svg_2">
    <path fill="#ffffff" id="svg_3" d="m481.391,335.216c-27.202,-27.201 -67.294,-36.966 -103.749,-25.745l-36.551,-36.552l159.708,-159.707c7.223,-7.223 11.201,-16.827 11.201,-27.042s-3.978,-19.82 -11.201,-27.042l-47.927,-47.927c-7.223,-7.224 -16.827,-11.201 -27.042,-11.201c-10.216,0 -19.819,3.977 -27.042,11.201l-159.708,159.708l-36.551,-36.552c11.221,-36.454 1.456,-76.547 -25.745,-103.749c-15.053,-15.053 -34.05,-24.981 -54.937,-28.71c-20.4,-3.643 -41.171,-1.167 -60.065,7.158c-3.02,1.331 -5.189,4.066 -5.797,7.31c-0.607,3.243 0.424,6.578 2.758,8.912l47.709,47.708l-33.729,33.728l-47.709,-47.707c-2.334,-2.334 -5.671,-3.362 -8.912,-2.758c-3.244,0.607 -5.979,2.776 -7.309,5.797c-8.325,18.895 -10.8,39.665 -7.159,60.065c3.729,20.887 13.657,39.884 28.711,54.938c27.201,27.2 67.296,36.966 103.749,25.745l36.551,36.551s-91.74,91.74 -122.32,122.321c-1.822,1.822 -2.421,3.925 -2.427,3.945l-43.551,131.405c-1.19,3.589 -0.253,7.543 2.421,10.216c1.906,1.905 4.461,2.929 7.072,2.929c1.052,0 2.113,-0.166 3.144,-0.508l131.278,-43.508c2.064,-0.589 4.072,-2.47 4.072,-2.47l122.32,-122.32l36.552,36.552c-11.221,36.454 -1.456,76.548 25.745,103.75c15.053,15.053 34.05,24.98 54.937,28.71c6.114,1.092 12.259,1.634 18.378,1.634c14.301,0 28.454,-2.962 41.686,-8.792c3.02,-1.331 5.189,-4.066 5.797,-7.31c0.607,-3.243 -0.424,-6.578 -2.758,-8.912l-47.709,-47.708l33.729,-33.729l47.708,47.708c2.334,2.334 5.669,3.37 8.912,2.758c3.244,-0.607 5.979,-2.776 7.309,-5.797c8.325,-18.895 10.801,-39.665 7.159,-60.065c-3.727,-20.888 -13.655,-39.884 -28.708,-54.938zm-68.461,-309.873c3.446,-3.446 8.027,-5.344 12.9,-5.344s9.454,1.897 12.9,5.344l47.927,47.927c3.445,3.445 5.343,8.026 5.343,12.9c0,4.873 -1.898,9.455 -5.344,12.9l-32.447,32.447l-73.726,-73.727l32.447,-32.447zm-269.104,158.9c-1.91,-1.91 -4.467,-2.929 -7.073,-2.929c-1.188,0 -2.388,0.212 -3.539,0.648c-30.698,11.624 -65.526,4.146 -88.729,-19.057c-20.932,-20.932 -28.988,-50.46 -22.26,-78.403l43.425,43.426c3.905,3.904 10.237,3.904 14.142,0l47.871,-47.871c3.905,-3.905 3.905,-10.237 0,-14.142l-43.425,-43.425c27.941,-6.73 57.47,1.328 78.403,22.26c23.203,23.203 30.683,58.031 19.057,88.728c-1.393,3.679 -0.501,7.832 2.28,10.613l40.959,40.959l-40.152,40.152l-40.959,-40.959zm-116.231,300.162l14.465,-43.648l29.181,29.181l-43.646,14.467zm64.891,-21.506l-43.385,-43.385l10.686,-32.244l64.942,64.942l-32.243,10.687zm50.778,-20.437l-29.792,-29.792l97.884,-97.884c3.905,-3.905 3.905,-10.237 0,-14.142c-3.904,-3.904 -10.237,-3.904 -14.142,0l-97.884,97.884l-29.793,-29.792l296.804,-296.804l0.807,0.807l28.984,28.985l-134.99,134.991c-3.905,3.905 -3.905,10.237 0,14.142c1.952,1.952 4.512,2.929 7.071,2.929s5.119,-0.977 7.071,-2.929l134.99,-134.991l29.792,29.793l-296.802,296.803zm346.245,-14.701l-43.425,-43.425c-1.875,-1.875 -4.419,-2.929 -7.071,-2.929s-5.196,1.054 -7.071,2.929l-47.87,47.871c-3.905,3.905 -3.905,10.237 0,14.142l43.425,43.426c-27.945,6.727 -57.471,-1.328 -78.403,-22.26c-23.203,-23.203 -30.683,-58.031 -19.057,-88.729c1.393,-3.679 0.501,-7.832 -2.281,-10.613l-40.959,-40.959l40.152,-40.152l40.96,40.96c2.781,2.781 6.933,3.675 10.613,2.28c30.695,-11.626 65.525,-4.146 88.728,19.057c20.932,20.932 28.988,50.46 22.259,78.402z"/>
    <g id="svg_4">
     <path fill="#ffffff" id="svg_5" d="m236.378,285.621c-4.181,0 -7.997,-2.71 -9.405,-6.636c-1.388,-3.872 -0.2,-8.321 2.936,-10.987c3.276,-2.785 8.092,-3.113 11.745,-0.869c3.506,2.154 5.319,6.422 4.523,10.442c-0.913,4.615 -5.092,8.05 -9.799,8.05z"/>
    </g>
   </g>
  </g>
 </g>
</svg>